name Walk10.mot
datacolumns 19
datarows 27
range 3.05300000 3.07900000
endheader

                time	   L_ground_force_vx	   L_ground_force_vy	   L_ground_force_vz	   L_ground_force_px	   L_ground_force_py	   L_ground_force_pz	   R_ground_force_vx	   R_ground_force_vy	   R_ground_force_vz	   R_ground_force_px	   R_ground_force_py	   R_ground_force_pz	   L_ground_torque_x	   L_ground_torque_y	   L_ground_torque_z	   R_ground_torque_x	   R_ground_torque_y	   R_ground_torque_z	
          3.05300000	          0.00000000	          0.00000000	          0.00000000	          0.00000000	          0.00000000	          0.00000000	        -25.80367714	        710.69591564	        -43.52763160	          0.20281219	          0.00000000	          0.06972934	          0.00000000	          0.00000000	          0.00000000	          0.00000000	          8.30275422	          0.00000000	
          3.05400000	          0.00000000	          0.00000000	          0.00000000	          0.00000000	          0.00000000	          0.00000000	        -25.49557249	        709.86936514	        -43.59459129	          0.20316107	          0.00000000	          0.06978054	          0.00000000	          0.00000000	          0.00000000	          0.00000000	          8.24971972	          0.00000000	
          3.05500000	          0.00000000	          0.00000000	          0.00000000	          0.00000000	          0.00000000	          0.00000000	        -25.19946869	        709.03678379	        -43.69491237	          0.20350239	          0.00000000	          0.06983649	          0.00000000	          0.00000000	          0.00000000	          0.00000000	          8.19487883	          0.00000000	
          3.05600000	          0.00000000	          0.00000000	          0.00000000	          0.00000000	          0.00000000	          0.00000000	        -24.92418176	        708.14962826	        -43.83478123	          0.20380647	          0.00000000	          0.06989523	          0.00000000	          0.00000000	          0.00000000	          0.00000000	          8.14171370	          0.00000000	
          3.05700000	          0.00000000	          0.00000000	          0.00000000	          0.00000000	          0.00000000	          0.00000000	        -24.66676713	        707.19196564	        -43.99642806	          0.20406207	          0.00000000	          0.06996974	          0.00000000	          0.00000000	          0.00000000	          0.00000000	          8.10168276	          0.00000000	
          3.05800000	          0.00000000	          0.00000000	          0.00000000	          0.00000000	          0.00000000	          0.00000000	        -24.41562511	        706.21459529	        -44.15433228	          0.20427150	          0.00000000	          0.07008653	          0.00000000	          0.00000000	          0.00000000	          0.00000000	          8.08664625	          0.00000000	
          3.05900000	          0.00000000	          0.00000000	          0.00000000	          0.00000000	          0.00000000	          0.00000000	        -24.15624507	        705.28856808	        -44.30015383	          0.20444662	          0.00000000	          0.07025311	          0.00000000	          0.00000000	          0.00000000	          0.00000000	          8.09883785	          0.00000000	
          3.06000000	          0.00000000	          0.00000000	          0.00000000	          0.00000000	          0.00000000	          0.00000000	        -23.87472887	        704.44383805	        -44.43115973	          0.20460715	          0.00000000	          0.07044163	          0.00000000	          0.00000000	          0.00000000	          0.00000000	          8.12473025	          0.00000000	
          3.06100000	          0.00000000	          0.00000000	          0.00000000	          0.00000000	          0.00000000	          0.00000000	        -23.56682685	        703.66000450	        -44.52886083	          0.20477655	          0.00000000	          0.07060858	          0.00000000	          0.00000000	          0.00000000	          0.00000000	          8.13604039	          0.00000000	
          3.06200000	          0.00000000	          0.00000000	          0.00000000	          0.00000000	          0.00000000	          0.00000000	        -23.24317115	        702.89072968	        -44.57684378	          0.20497063	          0.00000000	          0.07072283	          0.00000000	          0.00000000	          0.00000000	          0.00000000	          8.10867046	          0.00000000	
          3.06300000	          0.00000000	          0.00000000	          0.00000000	          0.00000000	          0.00000000	          0.00000000	        -22.91591199	        702.08144411	        -44.58840717	          0.20519165	          0.00000000	          0.07077590	          0.00000000	          0.00000000	          0.00000000	          0.00000000	          8.04460054	          0.00000000	
          3.06400000	          0.00000000	          0.00000000	          0.00000000	          0.00000000	          0.00000000	          0.00000000	        -22.58799838	        701.19479388	        -44.59692650	          0.20543695	          0.00000000	          0.07078343	          0.00000000	          0.00000000	          0.00000000	          0.00000000	          7.96623113	          0.00000000	
          3.06500000	          0.00000000	          0.00000000	          0.00000000	          0.00000000	          0.00000000	          0.00000000	        -22.26218765	        700.24598048	        -44.62847626	          0.20570242	          0.00000000	          0.07078386	          0.00000000	          0.00000000	          0.00000000	          0.00000000	          7.89541512	          0.00000000	
          3.06600000	          0.00000000	          0.00000000	          0.00000000	          0.00000000	          0.00000000	          0.00000000	        -21.94744509	        699.28436684	        -44.68980116	          0.20598010	          0.00000000	          0.07081608	          0.00000000	          0.00000000	          0.00000000	          0.00000000	          7.84182300	          0.00000000	
          3.06700000	          0.00000000	          0.00000000	          0.00000000	          0.00000000	          0.00000000	          0.00000000	        -21.65162787	        698.33336586	        -44.77129792	          0.20626025	          0.00000000	          0.07089290	          0.00000000	          0.00000000	          0.00000000	          0.00000000	          7.80185957	          0.00000000	
          3.06800000	          0.00000000	          0.00000000	          0.00000000	          0.00000000	          0.00000000	          0.00000000	        -21.37597100	        697.38280877	        -44.85715666	          0.20653284	          0.00000000	          0.07100471	          0.00000000	          0.00000000	          0.00000000	          0.00000000	          7.76598076	          0.00000000	
          3.06900000	          0.00000000	          0.00000000	          0.00000000	          0.00000000	          0.00000000	          0.00000000	        -21.11550353	        696.44166322	        -44.93706246	          0.20679839	          0.00000000	          0.07113756	          0.00000000	          0.00000000	          0.00000000	          0.00000000	          7.72822747	          0.00000000	
          3.07000000	          0.00000000	          0.00000000	          0.00000000	          0.00000000	          0.00000000	          0.00000000	        -20.86056972	        695.56458061	        -45.01024458	          0.20707581	          0.00000000	          0.07128219	          0.00000000	          0.00000000	          0.00000000	          0.00000000	          7.68881975	          0.00000000	
          3.07100000	          0.00000000	          0.00000000	          0.00000000	          0.00000000	          0.00000000	          0.00000000	        -20.59974096	        694.80651902	        -45.08104996	          0.20738310	          0.00000000	          0.07143300	          0.00000000	          0.00000000	          0.00000000	          0.00000000	          7.65185790	          0.00000000	
          3.07200000	          0.00000000	          0.00000000	          0.00000000	          0.00000000	          0.00000000	          0.00000000	        -20.32465032	        694.16342680	        -45.15570820	          0.20772070	          0.00000000	          0.07158365	          0.00000000	          0.00000000	          0.00000000	          0.00000000	          7.62225727	          0.00000000	
          3.07300000	          0.00000000	          0.00000000	          0.00000000	          0.00000000	          0.00000000	          0.00000000	        -20.03605398	        693.55901677	        -45.23889272	          0.20807162	          0.00000000	          0.07172864	          0.00000000	          0.00000000	          0.00000000	          0.00000000	          7.60048119	          0.00000000	
          3.07400000	          0.00000000	          0.00000000	          0.00000000	          0.00000000	          0.00000000	          0.00000000	        -19.74566179	        692.88125145	        -45.32836841	          0.20839984	          0.00000000	          0.07186034	          0.00000000	          0.00000000	          0.00000000	          0.00000000	          7.58007878	          0.00000000	
          3.07500000	          0.00000000	          0.00000000	          0.00000000	          0.00000000	          0.00000000	          0.00000000	        -19.46978565	        692.05001516	        -45.41605769	          0.20867138	          0.00000000	          0.07196232	          0.00000000	          0.00000000	          0.00000000	          0.00000000	          7.55316713	          0.00000000	
          3.07600000	          0.00000000	          0.00000000	          0.00000000	          0.00000000	          0.00000000	          0.00000000	        -19.21878544	        691.05394858	        -45.49216851	          0.20888495	          0.00000000	          0.07201918	          0.00000000	          0.00000000	          0.00000000	          0.00000000	          7.51651457	          0.00000000	
          3.07700000	          0.00000000	          0.00000000	          0.00000000	          0.00000000	          0.00000000	          0.00000000	        -18.98996421	        689.93334106	        -45.54933160	          0.20906423	          0.00000000	          0.07203037	          0.00000000	          0.00000000	          0.00000000	          0.00000000	          7.47242406	          0.00000000	
          3.07800000	          0.00000000	          0.00000000	          0.00000000	          0.00000000	          0.00000000	          0.00000000	        -18.77139620	        688.77359663	        -45.58902315	          0.20924536	          0.00000000	          0.07201345	          0.00000000	          0.00000000	          0.00000000	          0.00000000	          7.42615882	          0.00000000	
          3.07900000	          0.00000000	          0.00000000	          0.00000000	          0.00000000	          0.00000000	          0.00000000	        -18.54859856	        687.68967436	        -45.61775190	          0.20947086	          0.00000000	          0.07199864	          0.00000000	          0.00000000	          0.00000000	          0.00000000	          7.38178272	          0.00000000	
